<?xml version="1.0" encoding="UTF-8"?><svg id="Layer_1" xmlns="http://www.w3.org/2000/svg" viewBox="0 0 110.96 34.25"><defs><style>.cls-1{fill:#bfc7d7;}.cls-2{fill:#2a4782;}.cls-3,.cls-4{fill:#294682;}.cls-5{letter-spacing:-.03em;}.cls-6{letter-spacing:0em;}.cls-7{letter-spacing:0em;}.cls-4{font-family:Raleway, Raleway;font-size:10px;}</style></defs><g id="gH46QG.tif"><g><path class="cls-3" d="m34.96,31.26c-.18.06-.36.13-.54.17-.14.03-.29,0-.44,0H.04c-.01-.15-.02-.31-.04-.51h10.08c.11-.11.2-.19.28-.28V8.49c1.55-1.11,3.13-2.24,4.72-3.38.25.14.51.28.75.41.09-.08.11-.1.13-.12.02-.02.03-.05.03-.07,0-1.34,0-2.68,0-4,.11-.11.2-.19.31-.3.11.08.22.15.36.24v4.61c.65.33,1.28.64,1.93.96v-2.58c.19-.01.34-.03.54-.04v2.78c.71.36,1.41.72,2.11,1.09.32.17.62.36.9.53v13.79c1.09.45,2.18.9,3.32,1.36v6.84l.29.29c2.8,0,5.61,0,8.41,0,.28,0,.57-.03.81.18v.18ZM15.64,6.16s-.04-.1-.06-.15c-.04.05-.08.1-.12.15v24.57c1.98,0,3.91,0,5.83,0,.03,0,.05-.01.08-.03.02-.02.04-.04.04-.03V8.82c-.98-.43-1.96-.84-2.91-1.3-.76-.36-1.49-.79-2.24-1.17-.19-.1-.41-.13-.62-.19Z"/><path class="cls-1" d="m15.64,6.16h-.18s.08-.1.12-.15c.02.05.04.1.06.15Z"/><path class="cls-3" d="m17.25,8.9c.85.42,1.62.81,2.41,1.21v1.66c-.52.08-.85-.36-1.27-.46-.46-.11-.84-.28-1.17-.68,0-.24,0-.53,0-.81,0-.28.02-.56.03-.91Z"/><path class="cls-2" d="m19.67,13.26v1.65c-.53.11-.86-.27-1.26-.46-.39-.18-.78-.38-1.15-.55v-1.83c.83.41,1.6.79,2.41,1.19Z"/></g></g><text class="cls-4" transform="translate(40.09 8.55)"><tspan x="0" y="0">Beachside </tspan><tspan x="0" y="11">Bi</tspan><tspan class="cls-7" x="8.82" y="11">o</tspan><tspan x="14.69" y="11">techno</tspan><tspan class="cls-6" x="46.91" y="11">l</tspan><tspan x="49.54" y="11">og</tspan><tspan class="cls-5" x="61.65" y="11">y</tspan><tspan x="0" y="22">Services</tspan></text></svg>